<svg width="19" height="21" viewBox="0 0 19 21" fill="none" xmlns="http://www.w3.org/2000/svg">
<path d="M16.548 2.18389C14.0642 -0.299902 10.0195 -0.299902 7.53831 2.18389L0.65647 9.06045C0.611646 9.10527 0.587915 9.16592 0.587915 9.2292C0.587915 9.29248 0.611646 9.35312 0.65647 9.39795L1.62942 10.3709C1.67389 10.4152 1.73409 10.44 1.79685 10.44C1.85961 10.44 1.91981 10.4152 1.96428 10.3709L8.84612 3.49434C9.70041 2.64004 10.8368 2.1707 12.0445 2.1707C13.2521 2.1707 14.3885 2.64004 15.2402 3.49434C16.0945 4.34863 16.5638 5.48506 16.5638 6.69004C16.5638 7.89766 16.0945 9.03145 15.2402 9.88574L8.22649 16.8968L7.09006 18.0332C6.02747 19.0958 4.30042 19.0958 3.23782 18.0332C2.72366 17.519 2.44153 16.8361 2.44153 16.1084C2.44153 15.3807 2.72366 14.6978 3.23782 14.1836L10.1961 7.22793C10.3728 7.05391 10.6048 6.95635 10.8527 6.95635H10.8553C11.1031 6.95635 11.3325 7.05391 11.5066 7.22793C11.6832 7.40459 11.7781 7.63662 11.7781 7.88447C11.7781 8.12969 11.6806 8.36172 11.5066 8.53574L5.81917 14.2179C5.77434 14.2627 5.75061 14.3233 5.75061 14.3866C5.75061 14.4499 5.77434 14.5105 5.81917 14.5554L6.79211 15.5283C6.83659 15.5726 6.89679 15.5975 6.95955 15.5975C7.0223 15.5975 7.0825 15.5726 7.12698 15.5283L12.8117 9.84355C13.3364 9.31885 13.6239 8.62275 13.6239 7.88184C13.6239 7.14092 13.3338 6.44219 12.8117 5.92012C11.7281 4.83643 9.96672 4.83906 8.88303 5.92012L8.20803 6.59775L1.92737 12.8758C1.50109 13.2996 1.16319 13.8037 0.93326 14.3591C0.70333 14.9145 0.585946 15.51 0.587915 16.111C0.587915 17.3318 1.06516 18.4788 1.92737 19.341C2.82122 20.2322 3.99192 20.6778 5.16262 20.6778C6.33333 20.6778 7.50403 20.2322 8.39524 19.341L16.548 11.1936C17.7477 9.99121 18.4121 8.39072 18.4121 6.69004C18.4148 4.98672 17.7503 3.38623 16.548 2.18389Z" fill="#086BFF"/>
</svg>
